<svg xmlns="http://www.w3.org/2000/svg" width="800" height="600" viewBox="0 0 800 600"><g fill="#fff"><path d="M400 0C244.656 0 118.75 125.906 118.75 281.25c0 83.193 36.337 157.725 93.75 209.213V562.5c0 20.72 16.8 37.5 37.5 37.5h300c20.7 0 37.5-16.78 37.5-37.5v-72.037c57.432-51.488 93.75-126.02 93.75-209.213C681.25 125.906 555.344 0 400 0zm159.284 459.022l-14.034 12.57v86.157h-57.5V501.5h-20.5v56.25h-56.5V501.5h-21.5v56.25h-56.5V501.5h-22.5v56.25h-55.5v-86.162L240.712 459C190.054 413.6 161 348.813 161 281.25c0-131.785 107.215-239 239-239s239 107.215 239 239c0 67.554-29.054 132.348-79.716 177.772zM306.25 262.5c-31.05 0-56.25 25.18-56.25 56.25 0 31.05 25.2 56.25 56.25 56.25s56.25-25.2 56.25-56.25c0-31.07-25.2-56.25-56.25-56.25zM493.75 262.5c-31.05 0-56.25 25.18-56.25 56.25 0 31.05 25.2 56.25 56.25 56.25S550 349.8 550 318.75c0-31.07-25.2-56.25-56.25-56.25z"/></g></svg>