<?xml version="1.0" encoding="utf-8"?>
<!-- Generator: Adobe Illustrator 14.0.0, SVG Export Plug-In . SVG Version: 6.00 Build 43363)  -->
<!DOCTYPE svg PUBLIC "-//W3C//DTD SVG 1.1//EN" "http://www.w3.org/Graphics/SVG/1.1/DTD/svg11.dtd">
<svg version="1.1" id="Capa_1" xmlns="http://www.w3.org/2000/svg" xmlns:xlink="http://www.w3.org/1999/xlink" x="0px" y="0px"
	 width="800px" height="600px" viewBox="0 0 800 600" enable-background="new 0 0 800 600" xml:space="preserve">
<g>
	<path fill="#FFFFFF" d="M400,0C244.656,0,118.75,125.906,118.75,281.25c0,83.193,36.337,157.725,93.75,209.213V562.5
		c0,20.719,16.8,37.5,37.5,37.5h300c20.7,0,37.5-16.781,37.5-37.5v-72.037c57.432-51.488,93.75-126.02,93.75-209.213
		C681.25,125.906,555.344,0,400,0z M559.284,459.022l-14.034,12.57v72.157v14h-14h-29.5h-14v-14V501.5h-20.5v42.25v14h-14h-28.5h-14
		v-14V501.5h-21.5v42.25v14h-14h-28.5h-14v-14V501.5h-22.5v42.25v14h-14h-27.5h-14v-14v-72.162l-14.038-12.587
		C190.054,413.6,161,348.812,161,281.25c0-131.785,107.215-239,239-239s239,107.215,239,239
		C639,348.804,609.946,413.598,559.284,459.022z"/>
	<path fill="#FFFFFF" d="M306.25,262.5c-31.05,0-56.25,25.181-56.25,56.25c0,31.05,25.2,56.25,56.25,56.25s56.25-25.2,56.25-56.25
		C362.5,287.681,337.3,262.5,306.25,262.5z"/>
	<path fill="#FFFFFF" d="M493.75,262.5c-31.05,0-56.25,25.181-56.25,56.25c0,31.05,25.2,56.25,56.25,56.25S550,349.8,550,318.75
		C550,287.681,524.8,262.5,493.75,262.5z"/>
</g>
</svg>
